<svg id="f9cb3f49-d9fb-4135-a486-23c62899c16a" data-name="Ebene 1" xmlns="http://www.w3.org/2000/svg" viewBox="0 0 400 94.12"><defs><style>.b9d72a77-bb2c-4ab6-9334-a2c7d2f6463e{fill:#585961}</style><clipPath id="a0f0f10b-f728-4633-aa5e-7f6cd09b64f2"><path fill="none" d="M0 0h400v94.12H0z"/></clipPath></defs><g clip-path="url(#a0f0f10b-f728-4633-aa5e-7f6cd09b64f2)"><path class="b9d72a77-bb2c-4ab6-9334-a2c7d2f6463e" d="M310.74 47.17a18.09 18.09 0 0 1 7.46 1.56v3.06c0 2-2.83 7-9.26 7-4.32-.07-6.67-2.78-6.67-5.79 0-4.42 4.5-5.87 8.47-5.87m48.33-15.38c-8.56 0-15 6.52-15 15.32s6.58 15.48 15 15.48c4.9 0 9.4-2.3 11.57-5.58l-3.95-3.14c-1.05 2.48-4.47 4.38-7.74 4.38-5.72 0-9.82-5.3-9.82-11.14s4.06-11 9.76-11a8.53 8.53 0 0 1 7.68 4.45l3.93-3.13c-2.32-3.32-6-5.64-11.49-5.64m-48.1 0a20.45 20.45 0 0 0-11.57 3.87L301 39c3.28-2.38 6.44-3.57 9.37-3.57 5 0 7.8 3.11 7.8 7.81V45a23.7 23.7 0 0 0-8.17-1.26c-6.6 0-11.92 3.84-12 9.76 0 5.44 4.54 9.09 9.79 9.09 4.6 0 9-2.16 11.09-4.85l.15 1.8c.23 2.3 2.79 2.71 3.69 2.71a12.62 12.62 0 0 0 2-.23v-4.33c-1.05 0-1.58-.65-1.58-1.83V43.75c.02-8.75-5.84-11.96-12.14-11.96zm-57.3 0c-6.91 0-11.29 3.72-11.29 9.23 0 4.25 2.7 5.54 5.53 6.49s5.45 1.5 8.25 2.28c2.52.8 4.63 1.68 4.63 4.22 0 3.89-4 4.88-7 4.88a17.09 17.09 0 0 1-10.66-4l-2.07 3.4a20.41 20.41 0 0 0 12.93 4.34c6.68 0 11.69-3.1 11.69-9 0-4.53-3.29-6-6.24-7.09-2.23-.84-5.45-1.37-8.53-2.32-2.15-.67-3.75-1.47-3.75-3.81 0-4.28 4.31-4.91 6.49-4.91a13.32 13.32 0 0 1 8.92 3.31l2.26-3a16.53 16.53 0 0 0-11.07-3.93m-119.25 0c-4.66 0-9.52 1.6-12.26 5.24L122 32.3h-4.33V62h5V44.09c1.07-4 5.47-7.8 9.83-7.8 5.36 0 5.79 5.42 5.81 9.12V62h5V44.27c0-6.1-1.38-12.48-8.8-12.48m45.22-8.17v8.68h-4v3.93h4v20c0 4.57 3.37 6.17 6.66 6.21a14.79 14.79 0 0 0 5.9-1.31V57a8.84 8.84 0 0 1-4.26 1.21A3.09 3.09 0 0 1 184.6 55V36.23h6.61V32.3h-6.61v-8.68zm194.79-1.24V62h5V44.09c1.36-4.53 5.58-7.8 9.43-7.8 5 0 6.21 4.5 6.21 9.12V62h5V44.27c0-6.54-2-12.48-9.32-12.48-4.58 0-8.79 1.8-11.29 5.24V22.38zM161.12 35.55c5.51 0 9.58 4.37 10 9.75h-20c.5-5.39 4.33-9.72 9.94-9.75m0-3.76c-8.6 0-15.07 6.71-15.07 15.38 0 8.3 6 15.42 15 15.42a14.37 14.37 0 0 0 12-6l-3.45-2.74c-1 2.89-5.06 5-8.41 5-5.44 0-9.52-4.32-9.94-9.81h24.45a13.77 13.77 0 0 0 .11-2.07c0-8.39-6.2-15.16-14.73-15.16M225.77 35.55c5.51 0 9.57 4.37 10 9.75h-20c.5-5.39 4.33-9.72 9.94-9.75m0-3.76c-8.6 0-15.07 6.71-15.07 15.38 0 8.3 6 15.42 15 15.42a14.37 14.37 0 0 0 12-6l-3.45-2.74c-1 2.89-5.06 5-8.41 5-5.44 0-9.52-4.32-9.94-9.81h24.45a13.77 13.77 0 0 0 .21-2.04c0-8.44-6.2-15.21-14.73-15.21zM282 35.55c5.52 0 9.58 4.37 10.05 9.75h-20c.5-5.39 4.33-9.72 9.93-9.75m0-3.76c-8.59 0-15.07 6.71-15.07 15.38 0 8.3 6.05 15.42 15 15.42a14.38 14.38 0 0 0 12-6l-3.45-2.74c-1 2.89-5.06 5-8.41 5-5.44 0-9.52-4.32-9.94-9.81h24.45a13.77 13.77 0 0 0 .11-2.07c0-8.39-6.21-15.16-14.74-15.16M209.24 32.07a11.78 11.78 0 0 0-9.31 5V32.3h-4.63V62h5V43.7c1.35-4 5.7-7 10.61-7v-4.58h-1.64M342.3 32.07A11.8 11.8 0 0 0 333 37v-4.7h-4.62V62h5V43.7c1.35-4 5.7-7 10.62-7v-4.58h-1.64"/><path d="M65.64 0v9.91h10.28a8.27 8.27 0 0 1 8.29 8.29v57.72a8.28 8.28 0 0 1-8.29 8.29H65.64v9.91h15a13.42 13.42 0 0 0 13.48-13.45V13.44A13.41 13.41 0 0 0 80.67 0zM13.45 0A13.41 13.41 0 0 0 0 13.44v67.23a13.42 13.42 0 0 0 13.45 13.45h15v-9.91H18.2a8.28 8.28 0 0 1-8.29-8.29V18.2a8.27 8.27 0 0 1 8.29-8.29h10.28V0z" fill="#2999a3"/><path class="b9d72a77-bb2c-4ab6-9334-a2c7d2f6463e" d="M69.35 37.76C69.35 27 65 19.62 54 19.62c-8.35 0-15.23 2.43-20.13 8.33L33.65 21h-8.88v52h9.9V39c2.25-5.77 10.09-10.92 16.62-10.83 8.59.13 7.91 8.24 8.15 14.37v30.53h9.91"/></g></svg>