<?xml version="1.0" encoding="UTF-8"?><svg id="Ebene_1" xmlns="http://www.w3.org/2000/svg" xmlns:xlink="http://www.w3.org/1999/xlink" viewBox="0 0 64 64"><defs><style>.cls-1{fill:#399;}.cls-2{fill:#fff;}.cls-3{fill:none;}.cls-4{isolation:isolate;}.cls-5{clip-path:url(#clippath);}</style><clipPath id="clippath"><rect class="cls-3" x="14.2" y="14.2" width="35.5" height="35.5"/></clipPath></defs><g id="Ebene_1-2"><path class="cls-1" d="M0,0h64v64H0V0Z"/><image class="cls-4" width="16" height="2" transform="translate(24 14)" xlink:href="Module-1.png"/><g id="shape-5b5a08b6-534c-8039-8001-fe6701630580"><g class="cls-5"><g id="fills-5b5a08b6-534c-8039-8001-fe6701630580"><rect class="cls-3" x="14.2" y="14.2" width="35.5" height="35.5"/></g><g id="shape-f2f213e8-3dea-80be-8001-fef1fef862f9"><g id="fills-f2f213e8-3dea-80be-8001-fef1fef862f9"><path class="cls-2" d="M15.9,33.2c0-3,2.4-5.4,5.4-5.4h21.3c3,0,5.4,2.4,5.4,5.4v6.4H15.9v-6.4ZM32,31.2c-1.2,0-2.1.9-2.1,2.1s.9,2.1,2.1,2.1,2.1-.9,2.1-2.1-.9-2.1-2.1-2.1ZM39.2,31.2c-1.2,0-2.1.9-2.1,2.1s.9,2.1,2.1,2.1,2.1-.9,2.1-2.1-.9-2.1-2.1-2.1ZM24.8,31.2c-1.2,0-2.1.9-2.1,2.1s.9,2.1,2.1,2.1,2.1-.9,2.1-2.1-.9-2.1-2.1-2.1Z"/></g></g><g id="shape-5b5a08b6-534c-8039-8001-fe697b0f1e4c"><g id="fills-5b5a08b6-534c-8039-8001-fe697b0f1e4c"><path class="cls-2" d="M20.2,15.1h10.1c2.3,0,4.2,1.9,4.2,4.2h0c0,2.3-1.9,4.2-4.2,4.2h-10.1c-2.3,0-4.2-1.9-4.2-4.2h0c0-2.3,1.9-4.2,4.2-4.2Z"/></g></g><g id="shape-5b5a08b6-534c-8039-8001-fe69686802f9"><g id="fills-5b5a08b6-534c-8039-8001-fe69686802f9"><path class="cls-2" d="M15.9,42.1h32.1v1.4c0,3-2.4,5.4-5.4,5.4h-21.3c-3,0-5.4-2.4-5.4-5.4v-1.4h0Z"/></g></g><g id="shape-5b5a08b6-534c-8039-8001-fe699e8db5ee"><g id="fills-5b5a08b6-534c-8039-8001-fe699e8db5ee"><rect class="cls-2" x="24" y="23.5" width="2.5" height="4.2"/></g></g></g></g></g></svg>