<svg xmlns:xlink="http://www.w3.org/1999/xlink" width="420" xmlns="http://www.w3.org/2000/svg" height="420" id="screenshot-5b5a08b6-534c-8039-8001-fe6701630580" viewBox="-0 -0 420 420" style="-webkit-print-color-adjust: exact;" fill="none" version="1.1"><g id="shape-5b5a08b6-534c-8039-8001-fe6701630580"><defs><clipPath id="frame-clip-5b5a08b6-534c-8039-8001-fe6701630580-df7d7799-3dd8-8088-8002-01164669aa57" class="frame-clip"><rect rx="0" ry="0" x="0" y="0" width="419.9999995120975" height="419.9999994931823" transform="matrix(1,0,0,1,0,0)" style="opacity: 0.2;"/></clipPath></defs><g clip-path="url(#frame-clip-5b5a08b6-534c-8039-8001-fe6701630580-df7d7799-3dd8-8088-8002-01164669aa57)"><clipPath id="frame-clip-5b5a08b6-534c-8039-8001-fe6701630580-df7d7799-3dd8-8088-8002-01164669aa57" class="frame-clip"><rect rx="0" ry="0" x="0" y="0" width="419.9999995120975" height="419.9999994931823" transform="matrix(1,0,0,1,0,0)" style="opacity: 0.2;"/></clipPath><g id="fills-5b5a08b6-534c-8039-8001-fe6701630580"><rect width="419.9999995120975" height="419.9999994931823" class="frame-background" x="0" transform="matrix(1,0,0,1,0,0)" style="opacity: 0.2;" ry="0" rx="0" y="0"/></g><g class="frame-children"><g id="shape-f2f213e8-3dea-80be-8001-fef1fef862f9"><g id="fills-f2f213e8-3dea-80be-8001-fef1fef862f9"><path rx="0" ry="0" d="M20,224C20,188.677,48.677,160,84,160L336,160C371.323,160,400,188.677,400,224L400,300L20,300L20,224ZM210,200C196.202,200,185,211.202,185,225C185,238.798,196.202,250,210,250C223.798,250,235,238.798,235,225C235,211.202,223.798,200,210,200ZM295,200C281.202,200,270,211.202,270,225C270,238.798,281.202,250,295,250C308.798,250,320,238.798,320,225C320,211.202,308.798,200,295,200ZM125,200C111.202,200,100,211.202,100,225C100,238.798,111.202,250,125,250C138.798,250,150,238.798,150,225C150,211.202,138.798,200,125,200Z" style="fill: rgb(0, 0, 0); fill-opacity: 1;"/></g></g><g id="shape-5b5a08b6-534c-8039-8001-fe697b0f1e4c"><g id="fills-5b5a08b6-534c-8039-8001-fe697b0f1e4c"><rect rx="49.9999997837244" ry="49.9999997837244" x="20.000000284894668" y="9.999999962866724" transform="matrix(1,0,0,1,0,-0.000001)" width="219.99999894230848" height="99.9999995674488" style="fill: rgb(0, 0, 0); fill-opacity: 1;"/></g></g><g id="shape-5b5a08b6-534c-8039-8001-fe69686802f9"><g id="fills-5b5a08b6-534c-8039-8001-fe69686802f9"><path d="M20.000000312902472,330.0000012526925 h379.99999862857925 a0,0 0 0 1 0,0 v15.999996927161249 a64,64 0 0 1 -64,64 h-251.99999862857925 a64,64 0 0 1 -64,-64 v-15.999996927161249 a0,0 0 0 1 0,0 z" x="20.000000312902472" y="330.0000012526925" transform="matrix(1,0,0,1,-0.000001,-0.000004)" width="379.99999862857925" height="79.99999692716125" style="fill: rgb(0, 0, 0); fill-opacity: 1;"/></g></g><g id="shape-5b5a08b6-534c-8039-8001-fe699e8db5ee"><g id="fills-5b5a08b6-534c-8039-8001-fe699e8db5ee"><rect rx="0" ry="0" x="114.99999975604885" y="109.99999974659116" transform="matrix(1,0,0,1,0,0)" width="30" height="50" style="fill: rgb(0, 0, 0); fill-opacity: 1;"/></g></g></g></g></g></svg>