<?xml version="1.0" encoding="UTF-8"?>
<svg xmlns="http://www.w3.org/2000/svg" id="Layer_1" data-name="Layer 1" viewBox="0 0 24 24" width="512" height="512"><path d="M20.5,9H8v-3h5V3c0-1.657-1.343-3-3-3H3C1.343,0,0,1.343,0,3v3H5v3h-1.5c-1.93,0-3.5,1.57-3.5,3.5v11.5H24V12.5c0-1.93-1.57-3.5-3.5-3.5ZM3.5,12H20.5c.275,0,.5,.224,.5,.5v6.5H3v-6.5c0-.276,.225-.5,.5-.5Zm1.5,3.5c0-.828,.672-1.5,1.5-1.5s1.5,.672,1.5,1.5-.672,1.5-1.5,1.5-1.5-.672-1.5-1.5Zm5.5,0c0-.828,.672-1.5,1.5-1.5s1.5,.672,1.5,1.5-.672,1.5-1.5,1.5-1.5-.672-1.5-1.5Zm5.5,0c0-.828,.672-1.5,1.5-1.5s1.5,.672,1.5,1.5-.672,1.5-1.5,1.5-1.5-.672-1.5-1.5Z"/></svg>
