<svg xmlns="http://www.w3.org/2000/svg" width="420" height="420" fill="none" xmlns:v="https://vecta.io/nano"><defs><clipPath id="B"><path d="M0 0h420v420H0z" opacity=".2"/></clipPath></defs><g clip-path="url(#B)"><clipPath id="B"><path d="M0 0h420v420H0z" opacity=".2"/></clipPath><g fill="#000"><path d="M20 224c0-35.323 28.677-64 64-64h252c35.323 0 64 28.677 64 64v46H20v-46zm190-24c-13.798 0-25 11.202-25 25s11.202 25 25 25 25-11.202 25-25-11.202-25-25-25zm85 0c-13.798 0-25 11.202-25 25s11.202 25 25 25 25-11.202 25-25-11.202-25-25-25zm-170 0c-13.798 0-25 11.202-25 25s11.202 25 25 25 25-11.202 25-25-11.202-25-25-25z"/><rect rx="50" x="20" y="10" width="220" height="100"/><path d="M20 300h380 0v46c0 35.346-28.654 64-64 64H84c-35.346 0-64-28.654-64-64v-46h0zm95-190h30v50h-30z"/></g></g></svg>